<svg width="18" height="20" viewBox="0 0 18 20" fill="none" xmlns="http://www.w3.org/2000/svg">
<path d="M15.7547 0C14.6108 0 13.6834 0.927344 13.6834 2.07129V8.25156H17.2401C17.5637 8.25156 17.826 7.98922 17.826 7.66563V2.07129C17.826 0.927344 16.8987 0 15.7547 0V0Z" fill="#FF82AC"/>
<path d="M6.08435 14.7266C6.08435 11.187 8.96369 8.27176 12.5506 8.28152V2.32367C12.5506 1.43238 12.8861 0.618086 13.4372 0H3.10267C1.48783 0 0.173767 1.31406 0.173767 2.92891V19.4035C0.173767 19.9306 0.818572 20.1896 1.18314 19.8086L1.93275 19.0258L2.72455 19.818C2.95306 20.0465 3.32416 20.0465 3.55306 19.818L4.30345 19.068L5.06127 19.8195C5.28978 20.0461 5.65814 20.0461 5.88666 19.8195L6.65658 19.0562L7.42689 19.8195C7.65502 20.0461 8.02298 20.0461 8.2515 19.8199L8.40072 19.6723C6.94791 18.4576 6.08435 16.6616 6.08435 14.7266ZM4.91384 4.72656H6.07025V3.57016C6.07025 3.24656 6.33259 2.98422 6.65619 2.98422C6.97978 2.98422 7.24213 3.24656 7.24213 3.57016V4.72656H8.39853C8.72213 4.72656 8.98447 4.98891 8.98447 5.3125C8.98447 5.63609 8.72213 5.89844 8.39853 5.89844H7.24213V7.05484C7.24213 7.37844 6.97978 7.64078 6.65619 7.64078C6.33259 7.64078 6.07025 7.37844 6.07025 7.05484V5.89844H4.91384C4.59025 5.89844 4.32791 5.63609 4.32791 5.3125C4.32791 4.98891 4.59025 4.72656 4.91384 4.72656ZM3.14052 8.83008H7.08588C7.40947 8.83008 7.67181 9.09242 7.67181 9.41602C7.67181 9.73961 7.40947 10.002 7.08588 10.002H3.14052C2.81693 10.002 2.55459 9.73961 2.55459 9.41602C2.55459 9.09242 2.81693 8.83008 3.14052 8.83008ZM5.0956 14.6855H3.13662C2.81302 14.6855 2.55068 14.4232 2.55068 14.0996C2.55068 13.776 2.81302 13.5137 3.13662 13.5137H5.0956C5.4192 13.5137 5.68154 13.776 5.68154 14.0996C5.68154 14.4232 5.4192 14.6855 5.0956 14.6855ZM5.48627 12.3457H3.13853C2.81494 12.3457 2.55259 12.0834 2.55259 11.7598C2.55259 11.4362 2.81494 11.1738 3.13853 11.1738H5.48627C5.80986 11.1738 6.0722 11.4362 6.0722 11.7598C6.0722 12.0834 5.80986 12.3457 5.48627 12.3457Z" fill="#FF82AC"/>
<path d="M12.5297 9.45312C9.62189 9.45312 7.25623 11.8188 7.25623 14.7266C7.25623 17.6343 9.62189 20 12.5297 20C15.4374 20 17.8031 17.6343 17.8031 14.7266C17.8031 11.8188 15.4374 9.45312 12.5297 9.45312ZM13.1174 16.9832V17.0389C13.1174 17.3625 12.8551 17.6248 12.5315 17.6248C12.2079 17.6248 11.9456 17.3625 11.9456 17.0389V17.0289C11.6831 16.9664 11.4396 16.863 11.2465 16.7367C10.9757 16.5595 10.8998 16.1964 11.0769 15.9255C11.2541 15.6547 11.6172 15.5788 11.8881 15.756C12.1279 15.9129 12.5232 15.9725 12.7175 15.8811C12.8434 15.8218 12.9408 15.6954 12.9544 15.5736C12.9834 15.3141 12.5769 15.1694 12.3342 15.0735C11.9669 14.9285 11.5098 14.7479 11.2445 14.2689C10.8662 13.5861 11.1975 12.6858 11.9456 12.3779V12.3484C11.9456 12.0248 12.2079 11.7625 12.5315 11.7625C12.8519 11.7625 13.1119 12.0198 13.117 12.3389C13.3279 12.4048 13.5222 12.5103 13.6777 12.6538C13.9156 12.8732 13.9306 13.2439 13.7111 13.4818C13.4917 13.7197 13.121 13.7346 12.8832 13.5152C12.7868 13.4263 12.4897 13.3904 12.3606 13.4771C12.2738 13.5354 12.2398 13.6473 12.2695 13.7009C12.3933 13.9243 13.0413 14.0009 13.5318 14.3831C14.5336 15.1638 14.1851 16.5736 13.1174 16.9832Z" fill="#FF82AC"/>
</svg>
